<svg width="24" height="24" viewBox="0 0 24 24" fill="none" xmlns="http://www.w3.org/2000/svg">
<path d="M16.8931 8.63251L13.4431 5.17313C13.2605 4.98489 13.0419 4.83523 12.8003 4.73303C12.5588 4.63083 12.2992 4.57817 12.0369 4.57817C11.7746 4.57817 11.515 4.63083 11.2734 4.73303C11.0319 4.83523 10.8133 4.98489 10.6306 5.17313L7.17 8.63251L12.0169 11.0513L16.8931 8.63251ZM18.2163 10.0294L18.9006 10.7138C19.09 10.8957 19.2408 11.1141 19.3437 11.3557C19.4467 11.5974 19.4997 11.8573 19.4997 12.12C19.4997 12.3827 19.4467 12.6426 19.3437 12.8843C19.2408 13.1259 19.09 13.3443 18.9006 13.5263L13.3875 19.0938C13.2567 19.2273 13.1046 19.3382 12.9375 19.4219V12.6731L18.2163 10.0294ZM5.78313 10.0294L5.09875 10.7138C4.90933 10.8957 4.75862 11.1141 4.65568 11.3557C4.55273 11.5974 4.49966 11.8573 4.49966 12.12C4.49966 12.3827 4.55273 12.6426 4.65568 12.8843C4.75862 13.1259 4.90933 13.3443 5.09875 13.5263L10.6125 19.0938C10.7438 19.2275 10.8956 19.3388 11.0625 19.4219V12.6731L5.78313 10.0294Z" fill="#CECECE"/>
</svg>
