<svg width="24" height="24" viewBox="0 0 24 24" fill="none" xmlns="http://www.w3.org/2000/svg">
<path d="M8.545 17.0915C8.0916 17.7528 7.60602 18.3914 7.09 19.005C3.4 18.9 2 16.505 2 16.505C2.05193 13.1115 2.8743 9.77413 4.405 6.745C5.75009 5.69272 7.38906 5.08466 9.095 5.005L9.595 6.16C10.3092 6.06131 11.0291 6.00953 11.75 6.005C12.4742 6.00744 13.1974 6.05754 13.915 6.155L14.415 5C16.1226 5.08397 17.7617 5.69734 19.105 6.755C20.6308 9.78192 21.4497 13.1156 21.5 16.505C21.5 16.505 20.1 18.9 16.41 19.005C15.9014 18.3946 15.4242 17.7588 14.98 17.1M18.21 15.65C16.29 16.6225 14.4325 17.595 11.75 17.595C9.0675 17.595 7.21 16.6225 5.29 15.65" stroke="#CECECE" stroke-linecap="round" stroke-linejoin="round"/>
<path d="M8.9235 14.79C9.84858 14.79 10.5985 14.0401 10.5985 13.115C10.5985 12.1899 9.84858 11.44 8.9235 11.44C7.99842 11.44 7.2485 12.1899 7.2485 13.115C7.2485 14.0401 7.99842 14.79 8.9235 14.79Z" stroke="#CECECE" stroke-linecap="round" stroke-linejoin="round"/>
<path d="M15.0765 14.79C16.0016 14.79 16.7515 14.0401 16.7515 13.115C16.7515 12.1899 16.0016 11.44 15.0765 11.44C14.1514 11.44 13.4015 12.1899 13.4015 13.115C13.4015 14.0401 14.1514 14.79 15.0765 14.79Z" stroke="#CECECE" stroke-linecap="round" stroke-linejoin="round"/>
</svg>
