<svg width="24" height="24" viewBox="0 0 24 24" fill="none" xmlns="http://www.w3.org/2000/svg">
<path d="M7.84092 14.6149C7.30666 14.0585 6.81379 13.4534 6.43169 12.8186C5.24072 10.8396 4.58599 8.38328 6.43169 6.95212C7.90825 5.80718 9.68961 5.91952 11.2737 6.95212C11.5802 7.15188 11.7164 7.31266 12 7.54369C12 7.54369 12.4198 7.15188 12.7263 6.95212C13.8439 6.22361 15.0597 5.95315 16.1974 6.25912" stroke="#CECECE" stroke-linecap="round"/>
<path d="M9.80814 16.3412C11.0079 17.2702 12 17.8412 12 17.8412C12 17.8412 15.8736 15.6119 17.5683 12.796C18.5179 11.2182 19.1266 9.33674 18.3987 7.9135" stroke="#CECECE" stroke-linecap="round"/>
<path d="M18.24 6.135L7.44 16.935" stroke="#CECECE" stroke-linecap="round"/>
</svg>
