<svg width="24" height="24" viewBox="0 0 24 24" fill="none" xmlns="http://www.w3.org/2000/svg">
<path d="M8.57658 13.2305C8.57658 13.2305 4.3554 13.4422 4.3554 9.36618C4.3554 5.2901 8.57658 5.50188 8.57658 5.50188C8.57658 5.50188 12.7978 5.2901 12.7978 9.36618C12.7978 13.4422 8.57658 13.2305 8.57658 13.2305ZM8.57658 13.2305C2.59657 13.2305 2.59668 13.2305 2.59668 18.5M8.57658 13.2305C11.3276 13.2305 12.8131 13.2305 13.6152 13.7435M14.5567 18.5C14.5567 15.6547 14.5567 14.3457 13.6152 13.7435M17.2644 12.8203C16.6787 12.8033 14.6025 12.5782 14.6025 10.2441C14.6025 7.52674 17.4166 7.66792 17.4166 7.66792C17.4166 7.66792 20.2307 7.52674 20.2307 10.2441C20.2307 12.5782 18.1545 12.8033 17.5688 12.8203M17.2644 12.8203C17.3606 12.8231 17.4166 12.8203 17.4166 12.8203M17.2644 12.8203C17.3145 12.8203 17.3652 12.8203 17.4166 12.8203M17.2644 12.8203C14.8263 12.8207 13.9385 12.8389 13.6152 13.7435M17.4166 12.8203C17.4166 12.8203 17.4726 12.8231 17.5688 12.8203M17.4166 12.8203C17.468 12.8203 17.5187 12.8203 17.5688 12.8203M17.5688 12.8203C21.4033 12.8209 21.4033 12.8656 21.4033 16.3333" stroke="#CECECE" stroke-linecap="round"/>
</svg>
