<svg width="24" height="24" viewBox="0 0 24 24" fill="none" xmlns="http://www.w3.org/2000/svg">
<path d="M17.5683 12.8581C15.8736 15.6739 12 17.9032 12 17.9032C12 17.9032 10.8624 17.2485 9.55049 16.2006C8.23857 15.1526 6.87151 13.5889 6.43169 12.8581C5.24072 10.8792 4.58599 8.42279 6.43169 6.99163C7.90825 5.84669 9.68961 5.95903 11.2737 6.99163C11.5802 7.19139 11.7164 7.35217 12 7.5832C12 7.5832 12.4198 7.19139 12.7263 6.99163C13.9863 6.1703 15.2072 5.85331 16.628 6.44388C17.3311 6.7361 17.7151 7.01971 18.1821 7.62103C19.4451 9.24738 18.5991 11.1453 17.5683 12.8581Z" stroke="#CECECE" stroke-linecap="round"/>
</svg>
