<svg width="24" height="24" viewBox="0 0 24 24" fill="none" xmlns="http://www.w3.org/2000/svg">
<path d="M18 17.88L15.1626 15.0426M15.1626 15.0426C15.648 14.5573 16.0329 13.9811 16.2956 13.3469C16.5583 12.7128 16.6935 12.0331 16.6935 11.3467C16.6935 10.6604 16.5583 9.98069 16.2956 9.34655C16.033 8.71242 15.648 8.13622 15.1626 7.65088C14.6773 7.16553 14.1011 6.78053 13.4669 6.51786C12.8328 6.25519 12.1531 6.12 11.4667 6.12C10.7804 6.12 10.1007 6.25519 9.46655 6.51786C8.83241 6.78053 8.25622 7.16553 7.77087 7.65088C6.79067 8.63108 6.24 9.96052 6.24 11.3467C6.24 12.733 6.79067 14.0624 7.77087 15.0426C8.75108 16.0228 10.0805 16.5735 11.4667 16.5735C12.853 16.5735 14.1824 16.0228 15.1626 15.0426Z" stroke="#CECECE" stroke-linecap="round" stroke-linejoin="round"/>
</svg>
