<svg width="24" height="24" viewBox="0 0 24 24" fill="none" xmlns="http://www.w3.org/2000/svg">
<path d="M10.0857 18.6038C9.81843 18.5299 9.95807 16.5456 9.80721 16.4906C9.65635 16.4355 9.5143 16.3695 9.38107 16.2925C9.24785 16.2154 9.11718 16.1329 8.98906 16.0448C8.86094 15.9568 7.05497 17.0208 6.91757 16.8703C5.51534 15.3338 5.51534 15.3338 5.00275 13.7335C4.92021 13.4758 6.80732 12.5228 6.79572 12.4458C6.78411 12.3687 6.77831 12.2945 6.77831 12.2232V11.7775C6.77831 11.7057 6.78411 11.6313 6.79572 11.5542C6.80732 11.4772 4.91829 10.5236 5.00275 10.2665C5.6372 8.33491 5.63719 8.33491 6.91757 7.12972C7.12451 6.93493 8.8614 8.04324 8.98906 7.95519C9.11671 7.86714 9.25017 7.78459 9.38943 7.70755C9.52869 7.6305 9.66795 7.56447 9.80721 7.50944C9.94647 7.4544 9.8184 5.46998 10.0857 5.39623C12.0005 4.86792 12.0005 4.86792 13.9154 5.39623C14.1827 5.46998 14.043 7.4544 14.1939 7.50944C14.3448 7.56447 14.487 7.6305 14.6207 7.70755C14.7544 7.78459 14.8849 7.86714 15.012 7.95519C15.1392 8.04324 16.8815 6.94924 17.0835 7.12972C18.545 8.43509 18.545 8.43509 18.9983 10.2665C19.0632 10.5287 17.1938 11.4772 17.2054 11.5542C17.217 11.6313 17.2228 11.7057 17.2228 11.7775V12.2225C17.2228 12.2943 17.2112 12.3687 17.188 12.4458C17.1648 12.5228 19.0625 13.4755 18.9809 13.7335C18.4224 15.5011 18.4224 15.5011 17.0661 16.8703C16.8821 17.0561 15.1397 15.9568 15.012 16.0448C14.8844 16.1329 14.7509 16.2154 14.6117 16.2925C14.4724 16.3695 14.3332 16.4355 14.1939 16.4906C14.0546 16.5456 14.1827 18.5301 13.9154 18.6038C11.9978 19.1321 11.9978 19.1321 10.0857 18.6038ZM12.0354 14.3113C12.7085 14.3113 13.2829 14.0857 13.7587 13.6344C14.2345 13.1832 14.4724 12.6384 14.4724 12C14.4724 11.3616 14.2345 10.8168 13.7587 10.3656C13.2829 9.91431 12.7085 9.68868 12.0354 9.68868C11.3507 9.68868 10.7732 9.91431 10.303 10.3656C9.83274 10.8168 9.59786 11.3616 9.59832 12C9.59878 12.6384 9.8339 13.1832 10.3037 13.6344C10.7734 14.0857 11.3507 14.3113 12.0354 14.3113Z" stroke="#CECECE"/>
</svg>
