<svg width="24" height="24" viewBox="0 0 24 24" fill="none" xmlns="http://www.w3.org/2000/svg">
<path d="M11.8077 16.5801L8.01493 18.1605C7.65623 18.3099 7.2716 18.011 7.32789 17.6265L7.96384 13.2825C7.98661 13.1269 7.93492 12.9698 7.82431 12.8581L4.90908 9.91569C4.61813 9.62202 4.78897 9.12221 5.1988 9.06808L9.23693 8.53475C9.40144 8.51302 9.54446 8.41108 9.61867 8.26266L11.5528 4.39443C11.7371 4.0259 12.263 4.0259 12.4472 4.39443L14.3813 8.26266C14.4555 8.41108 14.5986 8.51302 14.7631 8.53475L18.8012 9.06808C19.211 9.12221 19.3819 9.62202 19.0909 9.91569L16.1757 12.8581C16.0651 12.9698 16.0134 13.1269 16.0362 13.2825L16.6721 17.6265C16.7284 18.011 16.3438 18.3099 15.9851 18.1605L12.1923 16.5801C12.0692 16.5288 11.9308 16.5288 11.8077 16.5801Z" stroke="#CECECE" stroke-linecap="round"/>
</svg>
