<svg width="24" height="24" viewBox="0 0 24 24" fill="none" xmlns="http://www.w3.org/2000/svg">
<g filter="url(#filter0_d_34_525)">
<path d="M9.51104 9.68713L9.77031 9.65002L9.88742 9.41576L11.8351 5.51968L11.8353 5.51939C11.8496 5.49072 11.8722 5.46566 11.9013 5.44775C11.9306 5.42981 11.9648 5.42 12.0003 5.42C12.0357 5.42 12.07 5.42981 12.0992 5.44775C12.1283 5.46566 12.1509 5.49072 12.1652 5.51938L12.1654 5.51962L14.1124 9.41569L14.2295 9.64997L14.4887 9.68712L18.8442 10.3113L18.8444 10.3113C18.8775 10.3161 18.9081 10.3293 18.9333 10.3491L19.2418 9.95556L18.9333 10.3491C18.9585 10.3688 18.9772 10.3942 18.9883 10.4221C18.9993 10.4501 19.0026 10.4801 18.998 10.5093C18.9939 10.5354 18.9835 10.5605 18.9674 10.5827L18.9374 10.6149L15.7909 13.6384L15.5992 13.8226L15.6447 14.0846L16.3895 18.3682L16.3896 18.3684C16.3947 18.3977 16.3918 18.4279 16.3811 18.456C16.3704 18.4842 16.352 18.5099 16.327 18.5299C16.302 18.55 16.2714 18.5637 16.2383 18.5687C16.2083 18.5733 16.1777 18.5707 16.1493 18.5613L16.1098 18.5433L12.2351 16.5273L12.0046 16.4074L11.774 16.5271L7.87859 18.5493L7.87839 18.5494C7.84931 18.5645 7.81623 18.5719 7.78266 18.5704C7.7491 18.569 7.71696 18.5587 7.68957 18.5413C7.66222 18.5239 7.64083 18.5001 7.62691 18.473C7.61456 18.449 7.60831 18.4228 7.60831 18.3965L7.61326 18.3551L8.35513 14.0845L8.40062 13.8226L8.20898 13.6384L5.05361 10.6058L5.05314 10.6054C5.03032 10.5835 5.01441 10.5567 5.00628 10.5279C4.99816 10.4992 4.99791 10.469 5.00554 10.4402C5.01317 10.4114 5.0286 10.3843 5.051 10.3621C5.0712 10.3421 5.0964 10.3267 5.1247 10.3176L5.16942 10.3087L9.51104 9.68713Z" stroke="#CECECE" shape-rendering="crispEdges"/>
</g>
<defs>
<filter id="filter0_d_34_525" x="3.54" y="4.92" width="16.92" height="16.0709" filterUnits="userSpaceOnUse" color-interpolation-filters="sRGB">
<feFlood flood-opacity="0" result="BackgroundImageFix"/>
<feColorMatrix in="SourceAlpha" type="matrix" values="0 0 0 0 0 0 0 0 0 0 0 0 0 0 0 0 0 0 127 0" result="hardAlpha"/>
<feOffset dy="0.96"/>
<feGaussianBlur stdDeviation="0.48"/>
<feComposite in2="hardAlpha" operator="out"/>
<feColorMatrix type="matrix" values="0 0 0 0 0 0 0 0 0 0 0 0 0 0 0 0 0 0 0.25 0"/>
<feBlend mode="normal" in2="BackgroundImageFix" result="effect1_dropShadow_34_525"/>
<feBlend mode="normal" in="SourceGraphic" in2="effect1_dropShadow_34_525" result="shape"/>
</filter>
</defs>
</svg>
