<svg width="24" height="24" viewBox="0 0 24 24" fill="none" xmlns="http://www.w3.org/2000/svg">
<path d="M7.60965 10.3512C7.607 11.4244 7.60314 14.748 7.60314 14.748C7.60314 14.748 6.36775 15.0491 5.67952 14.748C4.1064 14.0598 4.10726 11.0414 5.67952 10.3512C6.36971 10.0482 7.60965 10.3512 7.60965 10.3512ZM7.60965 10.3512C7.61124 9.70727 7.60314 10.8563 7.60965 10.3512ZM7.60965 10.3512C7.66025 6.42432 8.10424 5.12991 12 5.12991C15.8958 5.12991 16.3397 6.42432 16.3904 10.3512M16.3904 10.3512L16.3969 14.748M16.3904 10.3512C16.3969 10.8563 16.3904 9.75612 16.3904 10.3512ZM16.3904 10.3512C16.3904 10.3512 17.6303 10.0482 18.3205 10.3512C19.8927 11.0414 19.8936 14.0598 18.3205 14.748C17.6322 15.0491 16.3969 14.748 16.3969 14.748M16.3969 14.748C16.3947 15.6641 16.3969 17.4961 14.061 17.4961M14.061 17.4961C14.061 16.1221 14.0885 16.1221 12 16.1221C9.91149 16.1221 9.93897 16.1221 9.93897 17.4961C9.93897 18.8701 9.93897 18.8701 12 18.8701C14.061 18.8701 14.061 18.8701 14.061 17.4961Z" stroke="#CECECE"/>
</svg>
