<svg width="24" height="24" viewBox="0 0 24 24" fill="none" xmlns="http://www.w3.org/2000/svg">
<path d="M5 7.72222H9.30734M9.30734 7.72222L9.6676 5.644C9.77214 5.266 10.1492 5 10.5823 5H13.4177C13.8508 5 14.2269 5.266 14.3324 5.644L14.6927 7.72222M9.30734 7.72222H14.6927M14.6927 7.72222H19M17.432 9.48C17.432 9.48 18.272 15.416 16.424 17.88C15.584 19 12.056 19 12.056 19C12.056 19 8.36 19 7.688 17.88C6.008 15.08 6.68 9.48 6.68 9.48M13.736 15.64C14.072 13.68 14.072 12 14.072 10.6M10.376 15.64C10.04 13.68 10.04 12 10.04 10.6" stroke="#CECECE" stroke-linecap="round" stroke-linejoin="round"/>
</svg>
