<svg width="39" height="44" viewBox="0 0 39 44" fill="none" xmlns="http://www.w3.org/2000/svg">
<path d="M36.641 12L20.8205 2.86603C19.8923 2.33013 18.7487 2.33013 17.8205 2.86603L3.5 11.134C2.5718 11.6699 2 12.6603 2 13.7321V30.2679C2 31.3397 2.5718 32.3301 3.5 32.866L17.8205 41.134C18.7487 41.6699 19.8923 41.6699 20.8205 41.134L36.641 32" stroke="#66643E" stroke-width="3" stroke-linecap="round"/>
<path d="M30.5789 15.5L20.8205 9.86603C19.8923 9.33013 18.7487 9.33013 17.8205 9.86603L9.56219 14.634C8.63399 15.1699 8.06219 16.1603 8.06219 17.2321V26.7679C8.06219 27.8397 8.63399 28.8301 9.56219 29.366L17.8205 34.134C18.7487 34.6699 19.8923 34.6699 20.8205 34.134L30.5789 28.5" stroke="#CECECE" stroke-width="3" stroke-linecap="round"/>
</svg>
